<svg xmlns="http://www.w3.org/2000/svg" xmlns:xlink="http://www.w3.org/1999/xlink" width="128" zoomAndPan="magnify" viewBox="0 0 375 374.999991" height="128" preserveAspectRatio="xMidYMid meet" version="1.0"><defs><g/></defs><g fill="#000000" fill-opacity="1"><g transform="translate(34.596485, 225.749985)"><g><path d="M 6.0625 -80.882812 L 6.0625 2.0625 C 6.0625 14.835938 4.257812 22.960938 -8.515625 22.960938 L -8.515625 25.027344 C 6.707031 25.027344 15.351562 14.449219 15.351562 2.0625 L 15.351562 -80.882812 Z M 6.0625 -80.882812 "/></g></g></g><g fill="#000000" fill-opacity="1"><g transform="translate(56.655474, 225.749985)"><g><path d="M 3.226562 -5.933594 L 3.226562 -2.96875 C 3.226562 -2.96875 11.09375 3.355469 25.027344 3.355469 C 38.957031 3.355469 52.246094 -6.320312 52.246094 -20.640625 C 52.246094 -49.535156 10.835938 -41.023438 10.835938 -64.5 C 10.835938 -73.660156 17.15625 -81.140625 28.25 -81.140625 C 39.214844 -81.140625 46.3125 -75.851562 46.3125 -75.851562 L 46.183594 -78.5625 C 46.183594 -78.5625 38.441406 -83.335938 28.121094 -83.335938 C 17.929688 -83.335938 3.613281 -77.140625 3.613281 -61.015625 C 3.613281 -32.121094 44.890625 -42.957031 44.890625 -17.414062 C 44.890625 -4.902344 35.347656 1.289062 25.027344 1.289062 C 13.933594 1.289062 7.738281 -2.449219 3.226562 -5.933594 Z M 3.226562 -5.933594 "/></g></g></g><g fill="#000000" fill-opacity="1"><g transform="translate(129.861375, 191.999987)"><g><path d="M 2.027344 0 L 2.027344 -9.515625 L 1.050781 -9.515625 L 1.050781 0 Z M 2.027344 0 "/></g></g></g><g fill="#000000" fill-opacity="1"><g transform="translate(132.939653, 191.999987)"><g><path d="M 2.027344 -7.011719 L 7.375 0.585938 L 7.375 -9.515625 L 6.394531 -9.515625 L 6.394531 -2.519531 L 1.050781 -10.117188 L 1.050781 0 L 2.027344 0 Z M 2.027344 -7.011719 "/></g></g></g><g fill="#000000" fill-opacity="1"><g transform="translate(141.36295, 191.999987)"><g><path d="M 4.464844 0.574219 L 8.773438 -9.515625 L 7.710938 -9.515625 L 4.464844 -1.847656 L 1.203125 -9.515625 L 0.140625 -9.515625 Z M 4.464844 0.574219 "/></g></g></g><g fill="#000000" fill-opacity="1"><g transform="translate(150.275974, 191.999987)"><g><path d="M 6.703125 0 L 6.703125 -0.910156 L 2.027344 -0.910156 L 2.027344 -4.296875 L 6.5625 -4.296875 L 6.5625 -5.21875 L 2.027344 -5.21875 L 2.027344 -8.605469 L 6.703125 -8.605469 L 6.703125 -9.515625 L 1.050781 -9.515625 L 1.050781 0 Z M 6.703125 0 "/></g></g></g><g fill="#000000" fill-opacity="1"><g transform="translate(158.027652, 191.999987)"><g><path d="M 3.679688 -4.476562 C 4.914062 -4.183594 5.75 -3.863281 6.199219 -3.5 C 6.507812 -3.246094 6.660156 -2.925781 6.660156 -2.53125 C 6.660156 -2.140625 6.578125 -1.820312 6.410156 -1.59375 C 5.988281 -1.007812 5.234375 -0.714844 4.171875 -0.714844 C 2.6875 -0.714844 1.847656 -1.21875 1.664062 -2.226562 L 0.519531 -2.226562 C 0.855469 -0.617188 2.070312 0.183594 4.171875 0.183594 C 5.109375 0.183594 5.890625 -0.015625 6.523438 -0.433594 C 7.277344 -0.921875 7.667969 -1.652344 7.667969 -2.601562 C 7.667969 -3.386719 7.363281 -3.988281 6.746094 -4.410156 C 6.3125 -4.714844 5.613281 -4.996094 4.644531 -5.25 C 3.667969 -5.5 3.035156 -5.710938 2.742188 -5.863281 C 2.097656 -6.1875 1.777344 -6.632812 1.792969 -7.222656 C 1.792969 -7.53125 1.847656 -7.796875 1.988281 -7.992188 C 2.351562 -8.535156 2.996094 -8.816406 3.917969 -8.816406 C 5.21875 -8.816406 5.960938 -8.398438 6.15625 -7.585938 L 7.222656 -7.585938 C 6.871094 -8.957031 5.765625 -9.65625 3.917969 -9.65625 C 3.078125 -9.65625 2.335938 -9.433594 1.722656 -8.984375 C 1.089844 -8.535156 0.769531 -7.878906 0.769531 -6.984375 C 0.769531 -5.765625 1.75 -4.925781 3.679688 -4.476562 Z M 3.679688 -4.476562 "/></g></g></g><g fill="#000000" fill-opacity="1"><g transform="translate(166.059173, 191.999987)"><g><path d="M 0.28125 -8.636719 L 2.589844 -8.636719 L 2.589844 -0.0273438 L 3.570312 -0.0273438 L 3.570312 -8.636719 L 5.878906 -8.636719 L 5.878906 -9.542969 L 0.28125 -9.542969 Z M 0.28125 -8.636719 "/></g></g></g><g fill="#000000" fill-opacity="1"><g transform="translate(172.215739, 191.999987)"><g><path d="M 2.027344 0 L 2.027344 -9.515625 L 1.050781 -9.515625 L 1.050781 0 Z M 2.027344 0 "/></g></g></g><g fill="#000000" fill-opacity="1"><g transform="translate(175.294016, 191.999987)"><g><path d="M 10.441406 -4.449219 L 5.484375 -4.449219 L 5.484375 -3.597656 L 9.347656 -3.597656 C 9.054688 -2.769531 8.566406 -2.097656 7.863281 -1.609375 C 7.164062 -1.105469 6.382812 -0.867188 5.527344 -0.867188 C 4.4375 -0.867188 3.511719 -1.246094 2.742188 -2.015625 C 1.988281 -2.785156 1.609375 -3.722656 1.609375 -4.800781 C 1.609375 -5.878906 1.988281 -6.800781 2.757812 -7.570312 C 3.511719 -8.328125 4.4375 -8.71875 5.527344 -8.71875 C 6.339844 -8.71875 7.082031 -8.480469 7.738281 -8.019531 C 8.410156 -7.558594 8.886719 -6.957031 9.195312 -6.1875 L 10.230469 -6.1875 C 9.910156 -7.234375 9.308594 -8.074219 8.4375 -8.71875 C 7.570312 -9.363281 6.5625 -9.699219 5.429688 -9.699219 C 4.8125 -9.699219 4.210938 -9.558594 3.625 -9.308594 C 3.023438 -9.054688 2.503906 -8.703125 2.058594 -8.257812 C 1.609375 -7.808594 1.257812 -7.292969 1.007812 -6.703125 C 0.753906 -6.101562 0.628906 -5.457031 0.628906 -4.785156 C 0.628906 -4.113281 0.753906 -3.472656 1.007812 -2.882812 C 1.257812 -2.28125 1.609375 -1.761719 2.058594 -1.316406 C 2.503906 -0.867188 3.023438 -0.519531 3.625 -0.265625 C 4.210938 -0.015625 4.855469 0.113281 5.527344 0.113281 C 6.675781 0.113281 7.710938 -0.25 8.636719 -0.992188 C 9.558594 -1.75 10.132812 -2.699219 10.34375 -3.863281 Z M 10.441406 -4.449219 "/></g></g></g><g fill="#000000" fill-opacity="1"><g transform="translate(186.361837, 191.999987)"><g><path d="M 2.589844 -3.5 L 4.324219 -7.878906 L 6.046875 -3.5 Z M 8.496094 0 L 4.324219 -10.175781 L 0.140625 0 L 1.203125 0 L 2.226562 -2.589844 L 6.410156 -2.589844 L 7.429688 0 Z M 8.496094 0 "/></g></g></g><g fill="#000000" fill-opacity="1"><g transform="translate(194.995019, 191.999987)"><g><path d="M 9.78125 -2.910156 L 8.703125 -2.910156 C 8.367188 -2.296875 7.90625 -1.792969 7.320312 -1.425781 C 6.730469 -1.050781 6.074219 -0.867188 5.375 -0.867188 C 4.324219 -0.867188 3.429688 -1.246094 2.6875 -2.027344 C 1.960938 -2.769531 1.609375 -3.679688 1.609375 -4.746094 C 1.609375 -5.808594 1.960938 -6.71875 2.6875 -7.472656 C 3.023438 -7.824219 3.429688 -8.101562 3.890625 -8.3125 C 4.339844 -8.523438 4.785156 -8.636719 5.234375 -8.636719 C 5.667969 -8.636719 6.046875 -8.578125 6.382812 -8.480469 C 7.402344 -8.171875 8.171875 -7.558594 8.691406 -6.621094 L 9.769531 -6.621094 C 9.40625 -7.515625 8.832031 -8.242188 8.03125 -8.804688 C 7.222656 -9.363281 6.339844 -9.640625 5.375 -9.640625 C 4.042969 -9.640625 2.925781 -9.152344 2 -8.1875 C 1.566406 -7.738281 1.230469 -7.207031 0.992188 -6.621094 C 0.742188 -6.03125 0.628906 -5.402344 0.628906 -4.746094 C 0.628906 -3.402344 1.078125 -2.265625 2 -1.316406 C 2.769531 -0.488281 3.695312 -0.015625 4.757812 0.113281 L 4.15625 1.441406 C 4.339844 1.414062 4.535156 1.386719 4.757812 1.34375 C 4.96875 1.316406 5.179688 1.300781 5.375 1.328125 C 5.890625 1.414062 6.117188 1.695312 6.03125 2.183594 C 5.988281 2.492188 5.722656 2.660156 5.234375 2.714844 C 4.757812 2.769531 4.253906 2.699219 3.738281 2.503906 L 3.386719 3.234375 C 4.042969 3.5 4.6875 3.582031 5.332031 3.5 C 6.019531 3.402344 6.464844 3.09375 6.691406 2.574219 C 6.886719 2.113281 6.859375 1.664062 6.632812 1.246094 C 6.523438 1.0625 6.382812 0.910156 6.214844 0.796875 C 6.046875 0.6875 5.835938 0.628906 5.613281 0.628906 C 5.386719 0.628906 5.277344 0.644531 5.261719 0.644531 L 5.5 0.140625 C 6.410156 0.125 7.261719 -0.152344 8.046875 -0.699219 C 8.84375 -1.257812 9.417969 -1.988281 9.78125 -2.910156 Z M 9.78125 -2.910156 "/></g></g></g><g fill="#000000" fill-opacity="1"><g transform="translate(205.19532, 191.999987)"><g><path d="M 2.589844 -3.5 L 4.324219 -7.878906 L 6.046875 -3.5 Z M 8.496094 0 L 4.324219 -10.175781 L 0.140625 0 L 1.203125 0 L 2.226562 -2.589844 L 6.410156 -2.589844 L 7.429688 0 Z M 2.015625 -10.496094 L 2.699219 -10.496094 C 2.671875 -10.664062 2.6875 -10.832031 2.730469 -10.972656 C 2.800781 -11.292969 2.996094 -11.460938 3.304688 -11.460938 C 3.484375 -11.460938 3.640625 -11.390625 3.75 -11.28125 C 3.863281 -11.167969 3.972656 -11.027344 4.085938 -10.886719 C 4.199219 -10.75 4.351562 -10.609375 4.519531 -10.496094 C 4.6875 -10.382812 4.941406 -10.328125 5.304688 -10.328125 C 5.667969 -10.328125 5.933594 -10.414062 6.128906 -10.59375 C 6.507812 -10.957031 6.660156 -11.449219 6.605469 -12.078125 L 5.917969 -12.078125 C 5.917969 -11.714844 5.890625 -11.488281 5.851562 -11.378906 C 5.808594 -11.292969 5.75 -11.222656 5.667969 -11.183594 C 5.585938 -11.125 5.457031 -11.113281 5.289062 -11.113281 C 5.121094 -11.113281 4.980469 -11.167969 4.871094 -11.28125 C 4.757812 -11.390625 4.644531 -11.53125 4.535156 -11.671875 C 4.421875 -11.8125 4.28125 -11.9375 4.113281 -12.050781 C 3.945312 -12.160156 3.679688 -12.230469 3.34375 -12.230469 C 2.996094 -12.230469 2.730469 -12.132812 2.53125 -11.953125 C 2.167969 -11.601562 1.988281 -11.113281 2.015625 -10.496094 Z M 2.015625 -10.496094 "/></g></g></g><g fill="#000000" fill-opacity="1"><g transform="translate(213.828502, 191.999987)"><g><path d="M 9.433594 -4.785156 C 9.433594 -3.695312 9.039062 -2.769531 8.285156 -2.015625 C 7.515625 -1.246094 6.589844 -0.867188 5.515625 -0.867188 C 4.4375 -0.867188 3.511719 -1.246094 2.757812 -2.015625 C 1.988281 -2.769531 1.609375 -3.695312 1.609375 -4.785156 C 1.609375 -5.851562 1.988281 -6.773438 2.757812 -7.542969 C 3.511719 -8.300781 4.4375 -8.691406 5.515625 -8.691406 C 6.589844 -8.691406 7.515625 -8.300781 8.285156 -7.542969 C 9.039062 -6.773438 9.433594 -5.851562 9.433594 -4.785156 Z M 10.414062 -4.785156 C 10.414062 -5.457031 10.273438 -6.085938 10.019531 -6.691406 C 9.769531 -7.277344 9.417969 -7.796875 8.972656 -8.242188 C 8.523438 -8.675781 8.003906 -9.027344 7.417969 -9.277344 C 6.816406 -9.53125 6.1875 -9.671875 5.515625 -9.671875 C 4.84375 -9.671875 4.199219 -9.53125 3.609375 -9.277344 C 3.023438 -9.027344 2.503906 -8.675781 2.058594 -8.242188 C 1.609375 -7.796875 1.257812 -7.277344 1.007812 -6.691406 C 0.753906 -6.085938 0.628906 -5.457031 0.628906 -4.785156 C 0.628906 -4.113281 0.753906 -3.472656 1.007812 -2.882812 C 1.257812 -2.28125 1.609375 -1.761719 2.058594 -1.316406 C 2.503906 -0.867188 3.023438 -0.519531 3.609375 -0.265625 C 4.199219 -0.015625 4.84375 0.113281 5.515625 0.113281 C 6.1875 0.113281 6.816406 -0.015625 7.417969 -0.265625 C 8.003906 -0.519531 8.523438 -0.867188 8.972656 -1.316406 C 9.417969 -1.761719 9.769531 -2.28125 10.019531 -2.882812 C 10.273438 -3.472656 10.414062 -4.113281 10.414062 -4.785156 Z M 10.414062 -4.785156 "/></g></g></g><g fill="#000000" fill-opacity="1"><g transform="translate(228.646231, 191.999987)"><g><path d="M 2.027344 -4.714844 L 2.027344 -8.578125 L 4.242188 -8.578125 C 4.8125 -8.578125 5.277344 -8.398438 5.625 -8.046875 C 5.960938 -7.683594 6.144531 -7.234375 6.144531 -6.675781 C 6.144531 -6.101562 5.960938 -5.640625 5.597656 -5.261719 C 5.234375 -4.898438 4.785156 -4.714844 4.242188 -4.714844 Z M 7.125 -6.648438 C 7.125 -7.488281 6.816406 -8.171875 6.226562 -8.71875 C 5.640625 -9.25 4.941406 -9.515625 4.101562 -9.515625 L 1.050781 -9.515625 L 1.050781 0 L 2.027344 0 L 2.027344 -3.765625 L 4.101562 -3.765625 C 4.941406 -3.765625 5.652344 -4.03125 6.226562 -4.5625 C 6.816406 -5.121094 7.125 -5.808594 7.125 -6.648438 Z M 7.125 -6.648438 "/></g></g></g><g fill="#000000" fill-opacity="1"><g transform="translate(236.048098, 191.999987)"><g><path d="M 2.589844 -3.5 L 4.324219 -7.878906 L 6.046875 -3.5 Z M 8.496094 0 L 4.324219 -10.175781 L 0.140625 0 L 1.203125 0 L 2.226562 -2.589844 L 6.410156 -2.589844 L 7.429688 0 Z M 8.496094 0 "/></g></g></g><g fill="#000000" fill-opacity="1"><g transform="translate(244.68128, 191.999987)"><g><path d="M 2.027344 -4.703125 L 2.027344 -8.578125 L 4.242188 -8.578125 C 4.8125 -8.578125 5.277344 -8.398438 5.625 -8.03125 C 5.960938 -7.667969 6.144531 -7.222656 6.144531 -6.660156 C 6.144531 -6.101562 5.960938 -5.640625 5.597656 -5.261719 C 5.234375 -4.882812 4.785156 -4.703125 4.242188 -4.703125 Z M 7.125 -6.648438 C 7.125 -7.460938 6.816406 -8.160156 6.226562 -8.703125 C 5.652344 -9.238281 4.941406 -9.515625 4.101562 -9.515625 L 1.050781 -9.515625 L 1.050781 0 L 2.027344 0 L 2.027344 -3.765625 L 3.164062 -3.765625 L 5.960938 0 L 7.277344 0 L 4.339844 -3.765625 C 5.082031 -3.804688 5.710938 -4.074219 6.226562 -4.5625 C 6.816406 -5.109375 7.125 -5.808594 7.125 -6.648438 Z M 7.125 -6.648438 "/></g></g></g><g fill="#000000" fill-opacity="1"><g transform="translate(252.293031, 191.999987)"><g><path d="M 0.28125 -8.636719 L 2.589844 -8.636719 L 2.589844 -0.0273438 L 3.570312 -0.0273438 L 3.570312 -8.636719 L 5.878906 -8.636719 L 5.878906 -9.542969 L 0.28125 -9.542969 Z M 0.28125 -8.636719 "/></g></g></g><g fill="#000000" fill-opacity="1"><g transform="translate(258.449597, 191.999987)"><g><path d="M 2.027344 0 L 2.027344 -9.515625 L 1.050781 -9.515625 L 1.050781 0 Z M 2.027344 0 "/></g></g></g><g fill="#000000" fill-opacity="1"><g transform="translate(261.527874, 191.999987)"><g><path d="M 9.78125 -2.910156 L 8.703125 -2.910156 C 8.367188 -2.296875 7.90625 -1.792969 7.320312 -1.425781 C 6.730469 -1.050781 6.074219 -0.867188 5.375 -0.867188 C 4.324219 -0.867188 3.429688 -1.246094 2.6875 -2.027344 C 1.960938 -2.769531 1.609375 -3.679688 1.609375 -4.746094 C 1.609375 -5.808594 1.960938 -6.71875 2.6875 -7.472656 C 3.023438 -7.824219 3.429688 -8.101562 3.890625 -8.3125 C 4.339844 -8.523438 4.785156 -8.636719 5.234375 -8.636719 C 5.667969 -8.636719 6.046875 -8.578125 6.382812 -8.480469 C 7.402344 -8.171875 8.171875 -7.558594 8.691406 -6.621094 L 9.769531 -6.621094 C 9.40625 -7.515625 8.832031 -8.242188 8.03125 -8.804688 C 7.222656 -9.363281 6.339844 -9.640625 5.375 -9.640625 C 4.042969 -9.640625 2.925781 -9.152344 2 -8.1875 C 1.566406 -7.738281 1.230469 -7.207031 0.992188 -6.621094 C 0.742188 -6.03125 0.628906 -5.402344 0.628906 -4.746094 C 0.628906 -3.402344 1.078125 -2.265625 2 -1.316406 C 2.925781 -0.335938 4.042969 0.140625 5.375 0.140625 C 6.339844 0.140625 7.222656 -0.140625 8.046875 -0.699219 C 8.84375 -1.257812 9.417969 -1.988281 9.78125 -2.910156 Z M 9.78125 -2.910156 "/></g></g></g><g fill="#000000" fill-opacity="1"><g transform="translate(271.728176, 191.999987)"><g><path d="M 7.933594 -3.148438 L 7.933594 -9.515625 L 6.957031 -9.515625 L 6.957031 -3.007812 C 6.957031 -2.617188 6.886719 -2.296875 6.746094 -2.027344 C 6.339844 -1.246094 5.554688 -0.855469 4.394531 -0.855469 C 3.640625 -0.855469 3.035156 -1.023438 2.589844 -1.359375 C 2.070312 -1.734375 1.820312 -2.28125 1.820312 -3.007812 L 1.820312 -9.515625 L 0.839844 -9.515625 L 0.839844 -3.148438 C 0.839844 -2.113281 1.175781 -1.300781 1.847656 -0.714844 C 2.476562 -0.152344 3.332031 0.125 4.394531 0.125 C 5.445312 0.125 6.285156 -0.152344 6.925781 -0.714844 C 7.597656 -1.300781 7.933594 -2.113281 7.933594 -3.148438 Z M 7.933594 -3.148438 "/></g></g></g><g fill="#000000" fill-opacity="1"><g transform="translate(280.501273, 191.999987)"><g><path d="M 2.027344 -0.980469 L 2.027344 -9.515625 L 1.050781 -9.515625 L 1.050781 0 L 5.429688 0 L 5.429688 -0.980469 Z M 2.027344 -0.980469 "/></g></g></g><g fill="#000000" fill-opacity="1"><g transform="translate(286.210089, 191.999987)"><g><path d="M 2.589844 -3.5 L 4.324219 -7.878906 L 6.046875 -3.5 Z M 8.496094 0 L 4.324219 -10.175781 L 0.140625 0 L 1.203125 0 L 2.226562 -2.589844 L 6.410156 -2.589844 L 7.429688 0 Z M 8.496094 0 "/></g></g></g><g fill="#000000" fill-opacity="1"><g transform="translate(294.843271, 191.999987)"><g><path d="M 2.027344 -4.703125 L 2.027344 -8.578125 L 4.242188 -8.578125 C 4.8125 -8.578125 5.277344 -8.398438 5.625 -8.03125 C 5.960938 -7.667969 6.144531 -7.222656 6.144531 -6.660156 C 6.144531 -6.101562 5.960938 -5.640625 5.597656 -5.261719 C 5.234375 -4.882812 4.785156 -4.703125 4.242188 -4.703125 Z M 7.125 -6.648438 C 7.125 -7.460938 6.816406 -8.160156 6.226562 -8.703125 C 5.652344 -9.238281 4.941406 -9.515625 4.101562 -9.515625 L 1.050781 -9.515625 L 1.050781 0 L 2.027344 0 L 2.027344 -3.765625 L 3.164062 -3.765625 L 5.960938 0 L 7.277344 0 L 4.339844 -3.765625 C 5.082031 -3.804688 5.710938 -4.074219 6.226562 -4.5625 C 6.816406 -5.109375 7.125 -5.808594 7.125 -6.648438 Z M 7.125 -6.648438 "/></g></g></g></svg>